<svg height="512pt" viewBox="-88 0 512 512" width="512pt" xmlns="http://www.w3.org/2000/svg"><path d="m336.472656 266.652344v245.347656h-74.933594v-233.253906zm0 0" fill="#e6f6fc"/><path d="m313.941406 270.289062v241.710938h22.53125v-245.347656zm0 0" fill="#cae5ed"/><path d="m336.472656 266.652344c0 16.566406-13.429687 30-30 30-16.566406 0-30-13.433594-30-30 0-16.570313 13.433594-30 30-30 16.570313 0 30 13.429687 30 30zm0 0" fill="#9bb8d1"/><path d="m279.4375 260.84375h27.035156v35.808594h-27.035156c-9.886719 0-17.902344-8.015625-17.902344-17.90625 0-9.886719 8.015625-17.902344 17.902344-17.902344zm0 0" fill="#cae5ed"/><path d="m172.996094 332.109375h-48.277344l-61.265625 26.65625c-38.53125 16.769531-63.453125 54.792969-63.453125 96.816406v52.539063c0 2.144531 1.734375 3.878906 3.878906 3.878906h289.960938c2.140625 0 3.878906-1.734375 3.878906-3.878906v-52.539063c0-42.023437-24.921875-80.046875-63.457031-96.816406zm0 0" fill="#87d1ea"/><path d="m234.261719 358.765625-61.265625-26.65625h-24.722656l61.261718 26.65625c38.535156 16.769531 63.457032 54.792969 63.457032 96.816406v52.539063c0 2.144531-1.734376 3.878906-3.878907 3.878906h24.726563c2.140625 0 3.875-1.734375 3.875-3.878906v-52.539063c0-42.023437-24.917969-80.046875-63.453125-96.816406zm0 0" fill="#5fa6ce"/><path d="m134.378906 375.398438h28.957032l21.058593 136.601562h-71.074219zm0 0" fill="#3a4d7b"/><path d="m53.007812 364.035156 35.933594 62.023438c2.328125 4.015625 7.511719 5.316406 11.460938 2.875l48.441406-29.949219v-66.875h-24.132812c-65.585938 28.609375-63.152344 27.191406-70.695313 31.324219 0 0-.019531.019531-.039063.039062-.304687.152344-.730468.410156-.96875.5625zm0 0" fill="#c2f4ff"/><path d="m244.679688 364.035156-35.933594 62.023438c-2.324219 4.015625-7.511719 5.316406-11.460938 2.875l-48.441406-29.949219v-66.875h24.136719c65.582031 28.609375 63.148437 27.191406 70.695312 31.324219 0 0 .015625.019531.039063.039062.304687.152344.726562.410156.964844.5625zm0 0" fill="#c2f4ff"/><path d="m209.535156 358.765625c10.355469 4.507813 19.71875 10.558594 27.886719 17.800781l7.257813-12.53125c-.164063-.105468-.417969-.257812-.660157-.394531-.046875-.027344-.09375-.054687-.140625-.078125-.058594-.03125-.117187-.0625-.167968-.089844 0-.003906 0-.003906-.007813-.007812-.683594-.382813-1.371094-.765625-2.066406-1.136719-.183594-.097656-.367188-.195313-.546875-.289063-.8125-.425781-1.632813-.832031-2.453125-1.234374-1.773438-.851563-4.085938-1.898438-7.984375-3.609376l-14.21875-6.183593c-9.570313-4.15625-23.296875-10.109375-43.457032-18.902344h-24.132812v.246094zm0 0" fill="#87d1ea"/><path d="m107.265625 268.28125v81.273438l41.59375 49.429687 41.589844-49.429687v-81.273438zm0 0" fill="#ffcca9"/><path d="m107.265625 319.25c17.042969 11.789062 37.714844 18.695312 60.003906 18.695312 7.964844 0 15.71875-.882812 23.179688-2.554687v-67.109375h-83.183594zm0 0" fill="#ffa076"/><path d="m43.265625 145.988281v65.667969c0 58.316406 47.277344 105.589844 105.59375 105.589844s105.589844-47.273438 105.589844-105.589844v-65.667969zm0 0" fill="#ffcca9"/><path d="m228.996094 145.988281v65.667969c0 54.007812-40.550782 98.546875-92.863282 104.832031 4.171876.5 8.417969.757813 12.726563.757813 58.316406 0 105.589844-47.273438 105.589844-105.589844v-65.667969zm0 0" fill="#ffa076"/><path d="m252.121094 111.132812v-7.871093c0-57.03125-46.234375-103.261719-103.261719-103.261719-57.03125 0-103.261719 46.230469-103.261719 103.261719v7.867187c0 1.210938-.980468 2.1875-2.191406 2.1875h-4.804688c-5.96875 0-10.804687 4.835938-10.804687 10.804688v33.511718c0 1.707032 1.382813 3.089844 3.089844 3.089844h235.941406c1.707031 0 3.09375-1.382812 3.09375-3.089844v-33.511718c0-5.964844-4.835937-10.804688-10.804687-10.804688h-4.808594c-1.207032 0-2.1875-.976562-2.1875-2.183594zm0 0" fill="#ffdc61"/><g fill="#f7ad48"><path d="m259.117188 113.316406h-4.808594c-1.207032 0-2.1875-.976562-2.1875-2.1875v-7.867187c0-57.03125-46.234375-103.261719-103.261719-103.261719-4.363281 0-8.660156.269531-12.878906.796875 50.953125 6.335937 90.386719 49.796875 90.386719 102.464844v7.871093c0 1.207032.980468 2.1875 2.1875 2.1875h4.808593c5.964844 0 10.800781 4.835938 10.800781 10.800782v36.601562h22.664063c1.707031 0 3.09375-1.382812 3.09375-3.089844v-33.511718c-.003906-5.964844-4.839844-10.804688-10.804687-10.804688zm0 0"/><path d="m99.671875 78.148438c.699219 3.710937 3.941406 6.300781 7.585937 6.300781.472657 0 .953126-.042969 1.433594-.132813 4.195313-.785156 6.957032-4.824218 6.167969-9.019531l-12.101563-64.453125c-4.945312 2.472656-9.667968 5.328125-14.121093 8.53125zm0 0"/><path d="m189.023438 84.316406c.480468.089844.960937.132813 1.433593.132813 3.644531 0 6.890625-2.589844 7.585938-6.300781l11.035156-58.773438c-4.453125-3.203125-9.171875-6.058594-14.117187-8.53125l-12.105469 64.453125c-.789063 4.191406 1.972656 8.230469 6.167969 9.019531zm0 0"/></g><path d="m269.917969 489.621094h-56.347657c-4.144531 0-7.5-3.355469-7.5-7.5 0-4.140625 3.355469-7.5 7.5-7.5h56.347657c4.144531 0 7.5 3.359375 7.5 7.5 0 4.144531-3.355469 7.5-7.5 7.5zm0 0" fill="#3a4d7b"/><path d="m173.011719 113.316406c0 13.339844-10.8125 24.15625-24.152344 24.15625s-24.15625-10.816406-24.15625-24.15625 10.816406-24.152344 24.15625-24.152344 24.152344 10.8125 24.152344 24.152344zm0 0" fill="#ffeea6"/><path d="m58.980469 192.738281c59.917969-6.308593 119.835937-6.308593 179.757812 0 13.53125 1.425781 25.292969-9.253906 25.292969-22.859375v-9.15625h-230.347656v9.15625c0 13.605469 11.761718 24.285156 25.296875 22.859375zm0 0" fill="#ffeea6"/></svg>